<?xml version="1.0" encoding="UTF-8"?>
<svg width="131px" height="22px" viewBox="0 0 131 22" version="1.1" xmlns="http://www.w3.org/2000/svg" xmlns:xlink="http://www.w3.org/1999/xlink">
    <!-- Generator: Sketch 48.2 (47327) - http://www.bohemiancoding.com/sketch -->
    <title>WALLET</title>
    <desc>Created with Sketch.</desc>
    <defs></defs>
    <g id="logo/-white" stroke="none" stroke-width="1" fill="none" fill-rule="evenodd" transform="translate(-6.000000, -16.000000)">
        <path d="M8.09846003,16 L8.89516715,16 C9.66144461,16 10.3306229,16.5185147 10.5219546,17.260521 L12.8518975,26.2963056 C13.0835694,27.1947555 13.999714,27.7352859 14.8981639,27.503614 C15.4690173,27.3564153 15.9209466,26.9207722 16.0889884,26.3557032 L18.8114035,17.2011234 C19.0233051,16.4885686 19.6783117,16 20.421707,16 L21.8577381,16 C22.6065262,16 23.2649227,16.4955528 23.4721321,17.2150997 L26.1005661,26.3424939 C26.3573234,27.2340991 27.2882551,27.7487449 28.1798603,27.4919876 C28.7462866,27.3288727 29.1857938,26.8808351 29.3379914,26.3113783 L31.7608206,17.2462154 C31.9572565,16.5112387 32.6230776,16 33.383852,16 L34.1315294,16 C34.9800276,16 35.6678713,16.6878437 35.6678713,17.5363419 C35.6678713,17.6793025 35.6479175,17.8215634 35.6085874,17.9590074 L30.2222659,36.7821875 C30.0159778,37.5030872 29.3569273,38 28.6070932,38 L27.4063165,38 C26.6678099,38 26.0159027,37.5177234 25.7998311,36.8115328 L22.7118654,26.7190806 C22.4403993,25.8318432 21.5010846,25.3326619 20.6138472,25.604128 C20.0819529,25.7668705 19.6650915,26.1823306 19.5005588,26.7136738 L16.3720403,36.8169396 C16.1542103,37.520402 15.5036356,38 14.7672191,38 L13.5620713,38 C12.8122372,38 12.1531867,37.5030872 11.9468986,36.7821875 L6.57731075,18.0174853 C6.33691092,17.1773777 6.82307008,16.3014534 7.66317763,16.0610536 C7.80472448,16.0205494 7.95123199,16 8.09846003,16 Z M48.7723353,16 L49.8617678,16 C50.5374065,16 51.1473066,16.4047441 51.4097968,17.0273086 L59.4017447,35.9823124 C59.7135386,36.7218134 59.3668134,37.5740564 58.6273123,37.8858502 C58.4486296,37.9611878 58.2566752,38 58.0627596,38 L57.011808,38 C56.3241831,38 55.7059749,37.5809631 55.4512907,36.9422425 L54.287611,34.0238592 C54.0329268,33.3851386 53.4147186,32.9661017 52.7270937,32.9661017 L45.6808385,32.9661017 C44.9867935,32.9661017 44.3641919,33.3928897 44.1138928,34.0402294 L42.9981355,36.9258723 C42.7478363,37.573212 42.1252348,38 41.4311898,38 L40.4387366,38 C39.655907,38 39.0212982,37.3653912 39.0212982,36.5825616 C39.0212982,36.3917316 39.0598315,36.2028663 39.1345881,36.0272885 L47.2266107,17.0218699 C47.4904469,16.4022079 48.0988441,16 48.7723353,16 Z M51.6892202,27.3466105 L50.7738182,24.8753666 C50.4515275,24.0053018 49.4849324,23.5612431 48.6148676,23.8835339 C48.1587333,24.0524958 47.7982219,24.4108638 47.6265429,24.8659823 L46.6943446,27.3372263 C46.3668711,28.2053537 46.8051577,29.1745797 47.6732851,29.5020532 C47.8627992,29.5735414 48.0636791,29.6101695 48.2662283,29.6101695 L50.1138285,29.6101695 C51.0416669,29.6101695 51.7938285,28.8580079 51.7938285,27.9301695 C51.7938285,27.7309866 51.7584076,27.5333909 51.6892202,27.3466105 Z M66.6125973,16 L67.0845678,16 C68.0124062,16 68.7645678,16.7521616 68.7645678,17.68 L68.7645678,32.839774 C68.7645678,33.7676124 69.5167294,34.519774 70.4445678,34.519774 L76.2387195,34.519774 C77.1665579,34.519774 77.9187195,35.2719356 77.9187195,36.199774 L77.9187195,36.32 C77.9187195,37.2478384 77.1665579,38 76.2387195,38 L66.6125973,38 C65.6847589,38 64.9325973,37.2478384 64.9325973,36.32 L64.9325973,17.68 C64.9325973,16.7521616 65.6847589,16 66.6125973,16 Z M84.7046344,16 L85.1766048,16 C86.1044432,16 86.8566048,16.7521616 86.8566048,17.68 L86.8566048,32.839774 C86.8566048,33.7676124 87.6087665,34.519774 88.5366048,34.519774 L94.3307566,34.519774 C95.258595,34.519774 96.0107566,35.2719356 96.0107566,36.199774 L96.0107566,36.32 C96.0107566,37.2478384 95.258595,38 94.3307566,38 L84.7046344,38 C83.776796,38 83.0246344,37.2478384 83.0246344,36.32 L83.0246344,17.68 C83.0246344,16.7521616 83.776796,16 84.7046344,16 Z M102.796671,16 L113.700117,16 C114.627955,16 115.380117,16.7521616 115.380117,17.68 L115.380117,17.7380791 C115.380117,18.6659175 114.627955,19.4180791 113.700117,19.4180791 L106.628642,19.4180791 C105.700804,19.4180791 104.948642,20.1702407 104.948642,21.0980791 L104.948642,23.3312994 C104.948642,24.2591378 105.700804,25.0112994 106.628642,25.0112994 L113.1858,25.0112994 C114.095354,25.0112994 114.832693,25.7486384 114.832693,26.6581921 L114.832693,26.6581921 C114.832693,27.5677458 114.095354,28.3050847 113.1858,28.3050847 L106.628642,28.3050847 C105.700804,28.3050847 104.948642,29.0572464 104.948642,29.9850847 L104.948642,32.839774 C104.948642,33.7676124 105.700804,34.519774 106.628642,34.519774 L114.247541,34.519774 C115.17538,34.519774 115.927541,35.2719356 115.927541,36.199774 L115.927541,36.32 C115.927541,37.2478384 115.17538,38 114.247541,38 L102.796671,38 C101.868833,38 101.116671,37.2478384 101.116671,36.32 L101.116671,17.68 C101.116671,16.7521616 101.868833,16 102.796671,16 Z M124.888525,19.4180791 L121.64902,19.4180791 C120.721182,19.4180791 119.96902,18.6659175 119.96902,17.7380791 L119.96902,17.68 C119.96902,16.7521616 120.721182,16 121.64902,16 L135.32,16 C136.247838,16 137,16.7521616 137,17.68 L137,17.7380791 C137,18.6659175 136.247838,19.4180791 135.32,19.4180791 L132.080495,19.4180791 C131.152657,19.4180791 130.400495,20.1702407 130.400495,21.0980791 L130.400495,36.32 C130.400495,37.2478384 129.648334,38 128.720495,38 L128.248525,38 C127.320686,38 126.568525,37.2478384 126.568525,36.32 L126.568525,21.0980791 C126.568525,20.1702407 125.816363,19.4180791 124.888525,19.4180791 Z" id="WALLET" fill="#10EDC5"></path>
    </g>
</svg>