<?xml version="1.0" encoding="UTF-8"?>
<svg width="25px" height="21px" viewBox="0 0 25 21" version="1.1" xmlns="http://www.w3.org/2000/svg" xmlns:xlink="http://www.w3.org/1999/xlink">
    <!-- Generator: Sketch 48.2 (47327) - http://www.bohemiancoding.com/sketch -->
    <title>Payment</title>
    <desc>Created with Sketch.</desc>
    <defs></defs>
    <g id="icon/" stroke="none" stroke-width="1" fill="none" fill-rule="evenodd">
        <g id="Payment">
            <path d="M23.1138462,10.3578783 L23.1138462,7.63838721 C23.1138462,6.60866656 22.2724413,5.77391304 21.2441147,5.77391304 L2.82973147,5.77391304 C1.79710729,5.77391304 0.96,6.61779353 0.96,7.65539639 L0.96,18.0610497 C0.96,19.1001643 1.80140484,19.9425331 2.82973147,19.9425331 L21.2441147,19.9425331 C22.2767389,19.9425331 23.1138462,19.1017632 23.1138462,18.0780589 L23.1138462,15.3585678" id="Path-4" stroke="#FFFFFF" stroke-width="0.936"></path>
            <path d="M15.5566154,12.3784124 C15.5566154,11.0857759 16.5994111,10.042397 17.8966827,10.042397 L22.5858595,10.042397 C23.3570728,10.042397 23.988,10.6755069 23.988,11.4406847 L23.988,13.8674438 C23.988,14.6384824 23.355251,15.2657316 22.5858595,15.2657316 L17.8966827,15.2657316 C16.6078013,15.2657316 15.5566154,14.2126706 15.5566154,12.9297161 L15.5566154,12.3784124 Z" id="Combined-Shape" stroke="#10EDC5" stroke-width="0.936"></path>
            <path d="M17.3538462,12.6540643 L19.1261538,12.6540643" id="Line" stroke="#10EDC5" stroke-width="0.936" stroke-linecap="round"></path>
            <path d="M17.3372944,2.73926555 C17.8358449,2.59991912 18.24,2.90332298 18.24,3.41553516 L18.24,6.24347826 L4.8,6.24347826 L17.3372944,2.73926555 Z" id="Path-2" fill="#10EDC5"></path>
            <path d="M1.45399535,5.77547826 L0.506382708,5.77547826 L0.178373275,16.2820375 L0.646145372,16.2966411 L1.10285313,16.1944549 C1.08004552,16.0925193 1.06840693,15.9874119 1.06840693,15.8802367 L1.06840693,6.89209236 C1.06840693,6.5045024 1.21596349,6.10785596 1.45399535,5.77547826 Z M20.8735385,5.77547826 L20.8735385,6.24347826 L21.3415385,5.77547826 L20.8735385,5.77547826 Z M19.4643199,17.2937015 L19.4643199,18.2297015 L2.47762546,18.2297015 L2.47762546,17.2937015 L19.4643199,17.2937015 Z" id="Combined-Shape" stroke="#FFFFFF" stroke-width="0.936"></path>
        </g>
    </g>
</svg>