<?xml version="1.0" encoding="UTF-8"?>
<svg width="20px" height="20px" viewBox="0 0 20 20" version="1.1" xmlns="http://www.w3.org/2000/svg" xmlns:xlink="http://www.w3.org/1999/xlink">
    <!-- Generator: Sketch 48.2 (47327) - http://www.bohemiancoding.com/sketch -->
    <title>sign-out</title>
    <desc>Created with Sketch.</desc>
    <defs></defs>
    <g id="icon/3" stroke="none" stroke-width="1" fill="none" fill-rule="evenodd" transform="translate(-2.000000, -1.000000)">
        <g id="sign-out" transform="translate(2.000000, 1.000000)" fill-rule="nonzero">
            <path d="M17.8517573,0 L8.56861925,0 C7.38548117,0 6.42635983,0.959121339 6.42635983,2.14225941 L6.42635983,6.42677824 C6.42635983,6.82117155 6.74606695,7.14087866 7.14046025,7.14087866 C7.53485356,7.14087866 7.85456067,6.82117155 7.85456067,6.42677824 L7.85456067,2.14225941 C7.85456067,1.74786611 8.17426778,1.428159 8.56866109,1.428159 L17.8517992,1.428159 C18.2461925,1.428159 18.5658996,1.74786611 18.5658996,2.14225941 L18.5658996,17.8521757 C18.5658996,18.246569 18.2461925,18.5662762 17.8517992,18.5662762 L8.56861925,18.5662762 C8.17422594,18.5662762 7.85451883,18.246569 7.85451883,17.8521757 L7.85451883,13.5676569 C7.85451883,13.1732636 7.53481172,12.8535565 7.14041841,12.8535565 C6.7460251,12.8535565 6.42631799,13.1732636 6.42631799,13.5676569 L6.42631799,17.8521757 C6.42631799,19.0353138 7.38543933,19.9944351 8.56857741,19.9944351 L17.8517155,19.9944351 C19.0348536,19.9944351 19.9939749,19.0353138 19.9939749,17.8521757 L19.9939749,2.14225941 C19.9940167,0.959121339 19.0348954,0 17.8517573,0 Z" id="Shape" fill="#10EDC5"></path>
            <path d="M14.2812971,9.28313808 L2.43748954,9.28313808 L4.78899582,6.9316318 C5.06297071,6.64794979 5.0551046,6.19589958 4.77142259,5.92192469 C4.49468619,5.65468619 4.05598326,5.65468619 3.7792887,5.92192469 L0.208828452,9.4923431 C0.14251046,9.55870293 0.090083682,9.63757322 0.0546025105,9.72443515 C-0.0176150628,9.89912134 -0.0176150628,10.0953138 0.0546025105,10.27 C0.090251046,10.3571548 0.14292887,10.4362762 0.209539749,10.5028033 L3.77995816,14.0732218 C4.05393305,14.3569038 4.50598326,14.3647699 4.78966527,14.090795 C5.07334728,13.8168201 5.08121339,13.3647699 4.80723849,13.0810879 C4.80150628,13.0751464 4.79564854,13.0692887 4.78966527,13.0635146 L2.43748954,10.7112971 L14.2813389,10.7112971 C14.6757322,10.7112971 14.9954393,10.39159 14.9954393,9.99719665 C14.9954393,9.60280335 14.6756904,9.28313808 14.2812971,9.28313808 Z" id="Shape" fill="#FFFFFF"></path>
        </g>
    </g>
</svg>