<?xml version="1.0" encoding="UTF-8"?>
<svg width="22px" height="22px" viewBox="0 0 22 22" version="1.1" xmlns="http://www.w3.org/2000/svg" xmlns:xlink="http://www.w3.org/1999/xlink">
    <!-- Generator: Sketch 48.2 (47327) - http://www.bohemiancoding.com/sketch -->
    <title>transfer</title>
    <desc>Created with Sketch.</desc>
    <defs></defs>
    <g id="icon/2" stroke="none" stroke-width="1" fill="none" fill-rule="evenodd" transform="translate(-1.000000, -2.000000)">
        <g id="transfer" transform="translate(1.000000, 2.000000)" fill-rule="nonzero">
            <path d="M7.94244898,0.0179591837 L5.97591837,0.0179591837 C3.60081633,0.0179591837 1.66571429,1.95306122 1.66571429,4.32816327 L1.66571429,7.10734694 L0.938367347,6.38 C0.722857143,6.1644898 0.377142857,6.1644898 0.161632653,6.38 C-0.053877551,6.5955102 -0.053877551,6.94122449 0.161632653,7.15673469 L1.82734694,8.82244898 C1.93510204,8.93020408 2.07428571,8.98408163 2.21795918,8.98408163 C2.36163265,8.98408163 2.50081633,8.93020408 2.60857143,8.82244898 L4.27428571,7.15673469 C4.48979592,6.94122449 4.48979592,6.5955102 4.27428571,6.38 C4.05877551,6.1644898 3.71306122,6.1644898 3.49755102,6.38 L2.77020408,7.10734694 L2.77020408,4.32816327 C2.77020408,2.55918367 4.21142857,1.11795918 5.98040816,1.11795918 L7.94244898,1.11795918 C8.2477551,1.11795918 8.49469388,0.871020408 8.49469388,0.570204082 C8.49469388,0.269387755 8.2477551,0.0179591837 7.94244898,0.0179591837 Z" id="Shape" fill="#FFFFFF"></path>
            <path d="M11.2693878,0.610612245 L11.2693878,10.2322449 C11.2693878,10.537551 11.5163265,10.7844898 11.8216327,10.7844898 L21.4432653,10.7844898 C21.7485714,10.7844898 21.9955102,10.537551 21.9955102,10.2322449 L21.9955102,0.610612245 C21.9955102,0.305306122 21.7485714,0.0583673469 21.4432653,0.0583673469 L11.8171429,0.0583673469 C11.5163265,0.0628571429 11.2693878,0.305306122 11.2693878,0.610612245 Z M12.3693878,1.16285714 L20.8910204,1.16285714 L20.8910204,9.6844898 L12.3693878,9.6844898 L12.3693878,1.16285714 Z" id="Shape" fill="#10EDC5"></path>
            <path d="M16.015102,20.8730612 L14.0485714,20.8730612 C13.7432653,20.8730612 13.4963265,21.12 13.4963265,21.4253061 C13.4963265,21.7306122 13.7432653,21.977551 14.0485714,21.977551 L16.015102,21.977551 C18.3902041,21.977551 20.3253061,20.042449 20.3253061,17.6673469 L20.3253061,14.8881633 L21.0526531,15.6155102 C21.1604082,15.7232653 21.2995918,15.7771429 21.4432653,15.7771429 C21.5869388,15.7771429 21.7261224,15.7232653 21.8338776,15.6155102 C22.0493878,15.4 22.0493878,15.0542857 21.8338776,14.8387755 L20.1681633,13.1730612 C19.9616327,12.9665306 19.5979592,12.9665306 19.3914286,13.1730612 L17.7257143,14.8387755 C17.5102041,15.0542857 17.5102041,15.4 17.7257143,15.6155102 C17.9412245,15.8310204 18.2869388,15.8310204 18.502449,15.6155102 L19.2297959,14.8881633 L19.2297959,17.6673469 C19.2253061,19.4318367 17.7840816,20.8730612 16.015102,20.8730612 Z" id="Shape" fill="#FFFFFF"></path>
            <path d="M10.1738776,11.2110204 L0.552244898,11.2110204 C0.246938776,11.2110204 0.00448979592,11.4579592 0.00448979592,11.7632653 L0.00448979592,21.384898 C0.00448979592,21.6902041 0.251428571,21.9371429 0.552244898,21.9371429 L10.1738776,21.9371429 C10.4791837,21.9371429 10.7261224,21.6902041 10.7261224,21.384898 L10.7261224,11.7587755 C10.7216327,11.4579592 10.4746939,11.2110204 10.1738776,11.2110204 Z M9.62163265,20.8281633 L1.1,20.8281633 L1.1,12.3110204 L9.62163265,12.3110204 L9.62163265,20.8281633 Z" id="Shape" fill="#10EDC5"></path>
        </g>
    </g>
</svg>