<?xml version="1.0" encoding="UTF-8"?>
<svg width="19px" height="24px" viewBox="0 0 19 24" version="1.1" xmlns="http://www.w3.org/2000/svg" xmlns:xlink="http://www.w3.org/1999/xlink">
    <!-- Generator: Sketch 48.2 (47327) - http://www.bohemiancoding.com/sketch -->
    <title>user</title>
    <desc>Created with Sketch.</desc>
    <defs>
        <path d="M15.2644538,15.5538246 C15.2446256,15.5517661 12.3733359,15.6331228 11.9464205,12.6783626 C12.4207872,12.3605146 12.8579821,11.947883 13.2431462,11.4472047 C13.9924282,10.4731696 14.4752231,9.25127485 14.6471974,7.92959064 C14.7062923,7.87826901 14.7552051,7.81440936 14.7881385,7.7391345 C15.0993,7.02732164 15.2570974,6.26727485 15.2570974,5.48 C15.2570974,2.45833918 12.8835103,0 9.96579231,0 C9.20272308,0 8.46240513,0.168795322 7.76320513,0.502128655 C7.49647436,0.521684211 7.23510256,0.566736842 6.98444872,0.63625731 C5.78613333,0.968748538 4.81099487,1.82194152 4.23860769,3.03878363 C3.68293077,4.22025731 3.57341282,5.61108772 3.93032051,6.9551345 C4.0057359,7.23906433 4.10161282,7.51808187 4.21532051,7.78465497 C4.24611026,7.85674854 4.29200256,7.91826901 4.34710256,7.96888889 C4.62567179,10.0318129 5.64782308,11.7410526 7.04154615,12.6742456 C6.61331538,15.6340117 3.74304872,15.5518596 3.72326923,15.5539181 C1.65850513,15.621193 0,17.2540819 0,19.2529591 L0,23.4139415 C0,23.7118129 0.251433333,23.9532632 0.561620513,23.9532632 L5.49338718,23.9532632 L13.4941897,23.9532632 L18.4260538,23.9532632 C18.7361923,23.9532632 18.9877231,23.7118129 18.9877231,23.4139415 L18.9877231,19.2529591 C18.9876744,17.2539883 17.3293154,15.6210526 15.2644538,15.5538246 Z M7.29629231,1.6725614 C7.50124872,1.61567251 7.71770256,1.58194152 7.93966154,1.57235088 C8.02204359,1.56879532 8.10257436,1.54788304 8.17560256,1.51101754 C8.74418974,1.22414035 9.34653846,1.07869006 9.96584103,1.07869006 C12.2640615,1.07869006 14.1338564,3.05309942 14.1338564,5.48 C14.1338564,5.55284211 14.1317128,5.62530994 14.1284,5.69749708 C13.6826308,5.26278363 13.0632795,4.99260819 12.3793282,4.99260819 L8.55151026,4.99260819 C8.32375385,4.99260819 8.10759231,4.92392982 7.92631282,4.79396491 C7.7715359,4.68304094 7.65188462,4.53394152 7.58041538,4.36280702 C7.46972821,4.09810526 7.19681026,3.93253801 6.89972821,3.95045614 C6.60157436,3.96870175 6.35067692,4.16753216 6.27535897,4.44538012 C6.05354615,5.26390643 5.6112359,6.01787135 5.00440513,6.62928655 C4.4397641,4.39775439 5.45879744,2.18236257 7.29629231,1.6725614 Z M6.80765128,11.0007018 C6.07683333,10.143345 5.59822821,8.98559064 5.44652051,7.71808187 C6.15522051,7.11153216 6.71547692,6.35672515 7.08022821,5.51948538 C7.13557179,5.56851462 7.19369231,5.61487719 7.25439487,5.65843275 C7.63127692,5.92851462 8.07977436,6.07134503 8.55155897,6.07134503 L12.3793769,6.07134503 C12.9209744,6.07134503 13.3877897,6.38329825 13.5961077,6.82975439 C13.596059,6.83359064 13.5954744,6.83723977 13.5954744,6.84107602 C13.5954744,9.88566082 11.7558846,12.3626199 9.49468974,12.3626199 C8.51058718,12.3626667 7.55625128,11.8789708 6.80765128,11.0007018 Z M8.09814103,13.203883 C8.54337436,13.3585965 9.0117,13.4413567 9.49468974,13.4413567 C9.97383077,13.4413567 10.4419615,13.3612632 10.8901179,13.2067368 C11.0957564,14.2355556 11.6914308,15.1322573 12.5234846,15.7495673 L9.57434359,19.7826901 C9.5551,19.8090292 9.52835385,19.8223626 9.4948359,19.8223626 C9.46136667,19.8223626 9.43462051,19.8089825 9.41542564,19.7827368 L6.46555385,15.7486784 C7.29765641,15.1306667 7.8931359,14.2333099 8.09814103,13.203883 Z M17.8643846,22.8745263 L13.4941897,22.8745263 L5.49338718,22.8745263 L1.12324103,22.8745263 L1.12324103,19.2528655 C1.12324103,17.8062222 2.34883846,16.6292865 3.85529487,16.6292865 C3.87575641,16.6292865 4.77952308,16.6081871 5.49363077,16.2965614 L8.49606923,20.4025731 C8.7242641,20.7147135 9.09763846,20.9010526 9.49478718,20.9010526 C9.49478718,20.9010526 9.49478718,20.9010526 9.4948359,20.9010526 C9.8919359,20.9010526 10.265359,20.7147135 10.4935538,20.4025731 L13.4954564,16.2972164 C14.3098744,16.6293333 15.1119179,16.6293333 15.1323795,16.6293333 C16.6388359,16.6293333 17.8643846,17.806269 17.8643846,19.2529123 L17.8643846,22.8745263 Z" id="path-1"></path>
    </defs>
    <g id="icon/4" stroke="none" stroke-width="1" fill="none" fill-rule="evenodd" transform="translate(-3.000000, 0.000000)">
        <g id="user" transform="translate(3.000000, 0.000000)">
            <mask id="mask-2" fill="white">
                <use xlink:href="#path-1"></use>
            </mask>
            <use id="Shape" fill="#FFFFFF" fill-rule="nonzero" xlink:href="#path-1"></use>
            <polygon id="Rectangle" fill="#10EDC5" mask="url(#mask-2)" points="-1 16 5.23846634 14.1797582 6.84774611 16.2570471 12.2636926 16 14.6305399 13.5672243 21 14.5269908 21 25 -1 25"></polygon>
        </g>
    </g>
</svg>